<svg width="512" height="512" viewBox="0 0 512 512" fill="none" xmlns="http://www.w3.org/2000/svg">
<g clip-path="url(#clip0_3_5)">
<path d="M448.5 159.75H63.5V434.75H448.5V159.75Z" fill="#00BBFF"/>
<path d="M434.75 448.5H77.25C62.125 448.5 49.75 436.125 49.75 421V91C49.75 75.875 62.125 63.5 77.25 63.5H434.75C449.875 63.5 462.25 75.875 462.25 91V421C462.25 436.125 449.875 448.5 434.75 448.5Z" stroke="black" stroke-width="27.5" stroke-miterlimit="10" stroke-linecap="round"/>
<path d="M49.75 146H462.25" stroke="black" stroke-width="27.5" stroke-miterlimit="10"/>
<path d="M331.625 118.5H317.875C313.75 118.5 311 115.75 311 111.625V97.875C311 93.75 313.75 91 317.875 91H331.625C335.75 91 338.5 93.75 338.5 97.875V111.625C338.5 115.75 335.75 118.5 331.625 118.5Z" fill="black"/>
<path d="M372.875 118.5H359.125C355 118.5 352.25 115.75 352.25 111.625V97.875C352.25 93.75 355 91 359.125 91H372.875C377 91 379.75 93.75 379.75 97.875V111.625C379.75 115.75 377 118.5 372.875 118.5Z" fill="black"/>
<path d="M414.125 118.5H400.375C396.25 118.5 393.5 115.75 393.5 111.625V97.875C393.5 93.75 396.25 91 400.375 91H414.125C418.25 91 421 93.75 421 97.875V111.625C421 115.75 418.25 118.5 414.125 118.5Z" fill="black"/>
<path d="M214.75 228.5H206.5C195.5 228.5 187.25 236.75 187.25 247.75V269.75C187.25 278 181.75 284.875 173.5 287.625L159.75 297.25L173.5 306.875C181.75 309.625 187.25 316.5 187.25 324.75V346.75C187.25 357.75 195.5 366 206.5 366H214.75" stroke="black" stroke-width="27.5" stroke-miterlimit="10" stroke-linecap="round" stroke-linejoin="round"/>
<path d="M297.25 228.5H305.5C316.5 228.5 324.75 236.75 324.75 247.75V269.75C324.75 278 330.25 284.875 338.5 287.625L352.25 297.25L338.5 306.875C330.25 309.625 324.75 316.5 324.75 324.75V346.75C324.75 357.75 316.5 366 305.5 366H297.25" stroke="black" stroke-width="27.5" stroke-miterlimit="10" stroke-linecap="round" stroke-linejoin="round"/>
</g>
<defs>
<clipPath id="clip0_3_5">
<rect width="512" height="512" fill="white"/>
</clipPath>
</defs>
</svg>
